{"title":"Midnight.In.Paris.2011.BRRip.x264.AC3.RoSub-Psycho\t","uid":6737280,"size":1052866148,"categoryP":"video","categoryS":"movies","magnet":"?xt=urn:btih:c1ab628ac2b71649c4a81a5a6a12ea18fd824d74&amp;dn=Midnight.In.Paris.2011.BRRip.x264.AC3.RoSub-Psycho%09&amp;tr=udp%3A%2F%2Ftracker.openbittorrent.com%3A80&amp;tr=udp%3A%2F%2Fopen.demonii.com%3A1337&amp;tr=udp%3A%2F%2Ftracker.coppersurfer.tk%3A6969&amp;tr=udp%3A%2F%2Fexodus.desync.com%3A6969","seeders":0,"leechers":0,"uploader":"Francisco1206","files":-1,"time":1318376532,"description":"A romantic comedy about a family traveling to the French capital for business. The party includes a young engaged couple forced to confront the illusion that a life different from their own is better. \n\nIMDB rating: 8.0/10 (from 22,074 users)\n\nSOURCE: Midnight.in.Paris.720p.BluRay.x264.RoSubbed-MHD\n\nSAMPLE INCLUDED: 30s/5.3mb\n\n\nCAST: \n\nOwen Wilson..................Gil\nRachel McAdams...............Inez\nKurt Fuller..................John\nMimi Kennedy.................Helen\nMichael Sheen................Paul\nNina Arianda.................Carol\nCarla Bruni..................Museum Guide\nMaurice Sonnenberg...........Man at Wine Tasting\nThierry Hancisse.............1920's Partygoer\nGuillaume Gouix..............1920's Partygoer\nAudrey Fleurot...............1920's Partygoer\nMarie-Sohna Conde............1920's Partygoer\nYves Heck....................Cole Porter\nAlison Pill..................Zelda Fitzgerald\nCorey Stoll..................Ernest Hemingway\n\nGeneral\n*******\nFormat                           : Matroska\nFile size                        : 999 MiB\nDuration                         : 1h 33mn\nOverall bit rate                 : 1 486 Kbps\nEncoded date                     : UTC 2011-10-11 21:10:29\nWriting application              : mkvmerge v5.0.0 ('Die Wahre Liebe') built on Sep 25 2011 20:33:49\nWriting library                  : libebml v1.2.2 + libmatroska v1.3.0\n\nVideo\n*****\nID                               : 1\nFormat                           : AVC\nFormat/Info                      : Advanced Video Codec\nFormat profile                   : &lt;a class=&quot;__cf_email__&quot; href=&quot;/cdn-cgi/l/email-protection&quot; data-cfemail=&quot;b0fdd1d9def0fc839e80&quot;&gt;[email&amp;#160;protected]&lt;/a&gt;&lt;script cf-hash='f9e31' type=&quot;text/javascript&quot;&gt;\n/* &lt;![CDATA[ */!function(){try{var t=&quot;currentScript&quot;in document?document.currentScript:function(){for(var t=document.getElementsByTagName(&quot;script&quot;),e=t.length;e--;)if(t[e].getAttribute(&quot;cf-hash&quot;))return t[e]}();if(t&amp;&amp;t.previousSibling){var e,r,n,i,c=t.previousSibling,a=c.getAttribute(&quot;data-cfemail&quot;);if(a){for(e=&quot;&quot;,r=parseInt(a.substr(0,2),16),n=2;a.length-n;n+=2)i=parseInt(a.substr(n,2),16)^r,e+=String.fromCharCode(i);e=document.createTextNode(e),c.parentNode.replaceChild(e,c)}}}catch(u){}}();/* ]]&gt; */&lt;/script&gt;\nFormat settings, CABAC           : Yes\nFormat settings, ReFrames        : 4 frames\nMuxing mode                      : Container profile=&lt;a class=&quot;__cf_email__&quot; href=&quot;/cdn-cgi/l/email-protection&quot; data-cfemail=&quot;c396ada8adacb4ad83f0edf3&quot;&gt;[email&amp;#160;protected]&lt;/a&gt;&lt;script cf-hash='f9e31' type=&quot;text/javascript&quot;&gt;\n/* &lt;![CDATA[ */!function(){try{var t=&quot;currentScript&quot;in document?document.currentScript:function(){for(var t=document.getElementsByTagName(&quot;script&quot;),e=t.length;e--;)if(t[e].getAttribute(&quot;cf-hash&quot;))return t[e]}();if(t&amp;&amp;t.previousSibling){var e,r,n,i,c=t.previousSibling,a=c.getAttribute(&quot;data-cfemail&quot;);if(a){for(e=&quot;&quot;,r=parseInt(a.substr(0,2),16),n=2;a.length-n;n+=2)i=parseInt(a.substr(n,2),16)^r,e+=String.fromCharCode(i);e=document.createTextNode(e),c.parentNode.replaceChild(e,c)}}}catch(u){}}();/* ]]&gt; */&lt;/script&gt;\nCodec ID                         : V_MPEG4/ISO/AVC\nDuration                         : 1h 33mn\nBit rate                         : 1 233 Kbps\nNominal bit rate                 : 1 261 Kbps\nWidth                            : 720 pixels\nHeight                           : 384 pixels\nDisplay aspect ratio             : 1.875\nFrame rate mode                  : Variable\nFrame rate                       : 23.976 fps\nResolution                       : 8 bits\nColorimetry                      : 4:2:0\nScan type                        : Progressive\nBits/(Pixel*Frame)               : 0.186\nStream size                      : 828 MiB (83%)\nWriting library                  : x264 core 112\n\nAudio\n*****\nID                               : 2\nFormat                           : AC-3\nFormat/Info                      : Audio Coding 3\nCodec ID                         : A_AC3\nDuration                         : 1h 33mn\nBit rate mode                    : Constant\nBit rate                         : 224 Kbps\nChannel(s)                       : 2 channels\nChannel positions                : Front: L R\nSampling rate                    : 48.0 KHz\nStream size                      : 151 MiB (15%)\n\nText(subtitles)\n***************\nID                               : 3\nFormat                           : UTF-8\nCodec ID                         : S_TEXT/UTF8\nCodec ID/Info                    : UTF-8 Plain Text\nLanguage                         : ROMANIAN\n\n\nPLEASE SEED FOR AS LONG AS POSSIBLE!","torrent":{"xt":"urn:btih:c1ab628ac2b71649c4a81a5a6a12ea18fd824d74","amp;dn":"Midnight.In.Paris.2011.BRRip.x264.AC3.RoSub-Psycho%09","amp;tr":["udp%3A%2F%2Ftracker.openbittorrent.com%3A80","udp%3A%2F%2Fopen.demonii.com%3A1337","udp%3A%2F%2Ftracker.coppersurfer.tk%3A6969","udp%3A%2F%2Fexodus.desync.com%3A6969"],"infoHash":"c1ab628ac2b71649c4a81a5a6a12ea18fd824d74","infoHashBuffer":{"type":"Buffer","data":[193,171,98,138,194,183,22,73,196,168,26,90,106,18,234,24,253,130,77,116]},"announce":[],"urlList":[]}}